<?xml version='1.0' encoding='utf-8'?>
<svg xmlns="http://www.w3.org/2000/svg" width="1080mm" height="650mm" viewBox="0 0 1080 650" version="1.1" data-units="metres" data-drawing-scale="1 metre = 6 SVG units"><defs><pattern id="grid" width="30" height="30" patternUnits="userSpaceOnUse"><path d="M30 0H0V30" fill="none" stroke="#2c3d45" stroke-width="0.6" stroke-opacity="0.45" /></pattern></defs><rect width="1080" height="650" fill="#101619" /><rect width="1080" height="650" fill="url(#grid)" /><text x="24.000" y="28.000" text-anchor="start" style="fill:#f0f3f4;font-family:monospace;font-size:16px">ST CALYPSO / THREE DECK GENERAL ARRANGEMENT</text><text x="24.000" y="46.000" text-anchor="start" style="fill:#93a0a7;font-family:monospace;font-size:9px">FIT-DRIVEN HULL / COMMON STATIONS / 1 m = 6 DRAWING UNITS</text><line x1="72" y1="78.000" x2="1030" y2="78.000" style="stroke:#78878e;stroke-width:0.55;stroke-dasharray:3 3;stroke-opacity:0.30" /><text x="64.000" y="80.500" text-anchor="end" style="fill:#93a0a7;font-family:monospace;font-size:7px">0</text><line x1="72" y1="156.000" x2="1030" y2="156.000" style="stroke:#78878e;stroke-width:0.55;stroke-dasharray:3 3;stroke-opacity:0.30" /><text x="64.000" y="158.500" text-anchor="end" style="fill:#93a0a7;font-family:monospace;font-size:7px">13</text><line x1="72" y1="192.000" x2="1030" y2="192.000" style="stroke:#78878e;stroke-width:0.55;stroke-dasharray:3 3;stroke-opacity:0.30" /><text x="64.000" y="194.500" text-anchor="end" style="fill:#93a0a7;font-family:monospace;font-size:7px">19</text><line x1="72" y1="204.000" x2="1030" y2="204.000" style="stroke:#78878e;stroke-width:0.55;stroke-dasharray:3 3;stroke-opacity:0.30" /><text x="64.000" y="206.500" text-anchor="end" style="fill:#93a0a7;font-family:monospace;font-size:7px">21</text><line x1="72" y1="247.200" x2="1030" y2="247.200" style="stroke:#78878e;stroke-width:0.55;stroke-dasharray:3 3;stroke-opacity:0.30" /><text x="64.000" y="249.700" text-anchor="end" style="fill:#93a0a7;font-family:monospace;font-size:7px">28.2</text><line x1="72" y1="249.000" x2="1030" y2="249.000" style="stroke:#78878e;stroke-width:0.55;stroke-dasharray:3 3;stroke-opacity:0.30" /><text x="64.000" y="251.500" text-anchor="end" style="fill:#93a0a7;font-family:monospace;font-size:7px">28.5</text><line x1="72" y1="288.600" x2="1030" y2="288.600" style="stroke:#78878e;stroke-width:0.55;stroke-dasharray:3 3;stroke-opacity:0.30" /><text x="64.000" y="291.100" text-anchor="end" style="fill:#93a0a7;font-family:monospace;font-size:7px">35.1</text><line x1="72" y1="337.800" x2="1030" y2="337.800" style="stroke:#78878e;stroke-width:0.55;stroke-dasharray:3 3;stroke-opacity:0.30" /><text x="64.000" y="340.300" text-anchor="end" style="fill:#93a0a7;font-family:monospace;font-size:7px">43.3</text><line x1="72" y1="373.800" x2="1030" y2="373.800" style="stroke:#78878e;stroke-width:0.55;stroke-dasharray:3 3;stroke-opacity:0.30" /><text x="64.000" y="376.300" text-anchor="end" style="fill:#93a0a7;font-family:monospace;font-size:7px">49.3</text><line x1="72" y1="446.952" x2="1030" y2="446.952" style="stroke:#78878e;stroke-width:0.55;stroke-dasharray:3 3;stroke-opacity:0.30" /><text x="64.000" y="449.452" text-anchor="end" style="fill:#93a0a7;font-family:monospace;font-size:7px">61.492</text><line x1="72" y1="452.952" x2="1030" y2="452.952" style="stroke:#78878e;stroke-width:0.55;stroke-dasharray:3 3;stroke-opacity:0.30" /><text x="64.000" y="455.452" text-anchor="end" style="fill:#93a0a7;font-family:monospace;font-size:7px">62.492</text><line x1="72" y1="476.952" x2="1030" y2="476.952" style="stroke:#78878e;stroke-width:0.55;stroke-dasharray:3 3;stroke-opacity:0.30" /><text x="64.000" y="479.452" text-anchor="end" style="fill:#93a0a7;font-family:monospace;font-size:7px">66.492</text><text x="25.000" y="315.000" text-anchor="middle" style="fill:#93a0a7;font-family:monospace;font-size:7px" transform="rotate(-90 25.000 315.000)">STATION FROM FP / m</text><g id="deck-p1"><text x="180.000" y="64.000" text-anchor="middle" style="fill:#f0f3f4;font-family:monospace;font-size:12px;font-weight:bold">DECK +1</text><text x="180.000" y="75.000" text-anchor="middle" style="fill:#93a0a7;font-family:monospace;font-size:7px">PASSENGER / UPPER ACCESS</text><polygon points="169.500,78.000 150.000,97.500 129.000,138.000 120.000,180.000 120.000,452.952 135.000,476.952 225.000,476.952 240.000,452.952 240.000,180.000 231.000,138.000 210.000,97.500 190.500,78.000" style="fill:none;stroke:#e8ecef;stroke-width:1.7" /><polygon points="174.000,90.000 160.800,108.000 139.200,138.000 124.800,180.000 123.000,451.200 138.000,474.000 222.000,474.000 237.000,451.200 235.200,180.000 220.800,138.000 199.200,108.000 186.000,90.000" style="fill:none;stroke:#87949b;stroke-width:0.85" /><line x1="180.000" y1="80.400" x2="180.000" y2="474.000" style="stroke:#68777e;stroke-width:0.65;stroke-dasharray:6 3 1.5 3" /><polygon points="174.000,92.400 162.000,108.000 142.800,138.000 134.400,156.000 225.600,156.000 217.200,138.000 198.000,108.000 186.000,92.400" style="fill:#1c252a;stroke:#87949b;stroke-width:0.75" /><text x="180.000" y="130.200" text-anchor="middle" style="fill:#f0f3f4;font-family:monospace;font-size:7.5px">PASSENGER LOUNGE</text><rect x="174.000" y="156.000" width="12.000" height="48.000" style="fill:#203b33;stroke:#6c9c83;stroke-width:0.75" /><rect x="153.600" y="156.000" width="20.400" height="36.000" style="fill:#1c252a;stroke:#87949b;stroke-width:0.75" /><rect x="186.000" y="156.000" width="20.400" height="36.000" style="fill:#1c252a;stroke:#87949b;stroke-width:0.75" /><text x="163.800" y="175.800" text-anchor="middle" style="fill:#b6c0c5;font-family:monospace;font-size:5.7px">STAIR</text><text x="196.200" y="175.800" text-anchor="middle" style="fill:#b6c0c5;font-family:monospace;font-size:5.7px">ELEV</text><text x="180.000" y="175.800" text-anchor="middle" style="fill:#93a0a7;font-family:monospace;font-size:4.7px" transform="rotate(-90 180.000 175.800)">2.0 m</text><rect x="138.000" y="192.000" width="84.000" height="12.000" style="fill:#203b33;stroke:#6c9c83;stroke-width:0.75" /><text x="180.000" y="199.500" text-anchor="middle" style="fill:#b6c0c5;font-family:monospace;font-size:5.7px">CROSS PASSAGE</text><rect x="138.000" y="204.000" width="12.000" height="133.800" style="fill:#203b33;stroke:#6c9c83;stroke-width:0.75" /><rect x="210.000" y="204.000" width="12.000" height="133.800" style="fill:#203b33;stroke:#6c9c83;stroke-width:0.75" /><text x="144.000" y="270.600" text-anchor="middle" style="fill:#93a0a7;font-family:monospace;font-size:4.7px" transform="rotate(-90 144.000 270.600)">PORT PWAY</text><text x="216.000" y="270.600" text-anchor="middle" style="fill:#93a0a7;font-family:monospace;font-size:4.7px" transform="rotate(90 216.000 270.600)">STBD PWAY</text><line x1="123.000" y1="337.800" x2="138.000" y2="337.800" style="stroke:#e8ecef;stroke-width:1.7" /><line x1="150.000" y1="337.800" x2="210.000" y2="337.800" style="stroke:#e8ecef;stroke-width:1.7" /><line x1="222.000" y1="337.800" x2="237.000" y2="337.800" style="stroke:#e8ecef;stroke-width:1.7" /><polygon points="123.000,337.800 123.000,452.952 138.000,476.952 222.000,476.952 237.000,452.952 237.000,337.800" style="fill:#18231f;stroke:#87949b;stroke-width:0.75" /><rect x="150.000" y="204.000" width="12.000" height="43.200" style="fill:#28353c;stroke:#87949b;stroke-width:0.75" /><text x="156.000" y="226.800" text-anchor="middle" style="fill:#93a0a7;font-family:monospace;font-size:4.7px">P1</text><rect x="162.000" y="204.000" width="12.000" height="43.200" style="fill:#28353c;stroke:#87949b;stroke-width:0.75" /><text x="168.000" y="226.800" text-anchor="middle" style="fill:#93a0a7;font-family:monospace;font-size:4.7px">P2</text><rect x="174.000" y="204.000" width="12.000" height="43.200" style="fill:#28353c;stroke:#87949b;stroke-width:0.75" /><text x="180.000" y="226.800" text-anchor="middle" style="fill:#93a0a7;font-family:monospace;font-size:4.7px">P3</text><rect x="186.000" y="204.000" width="12.000" height="43.200" style="fill:#28353c;stroke:#87949b;stroke-width:0.75" /><text x="192.000" y="226.800" text-anchor="middle" style="fill:#93a0a7;font-family:monospace;font-size:4.7px">P4</text><rect x="198.000" y="204.000" width="12.000" height="43.200" style="fill:#28353c;stroke:#87949b;stroke-width:0.75" /><text x="204.000" y="226.800" text-anchor="middle" style="fill:#93a0a7;font-family:monospace;font-size:4.7px">P5</text><rect x="150.000" y="247.200" width="60.000" height="1.800" style="fill:#8a633f;fill-opacity:0.55" /><text x="180.000" y="245.400" text-anchor="middle" style="fill:#93a0a7;font-family:monospace;font-size:4.7px">PASSENGER CABINS</text><rect x="151.200" y="249.000" width="28.800" height="39.600" style="fill:#37352b;stroke:#87949b;stroke-width:0.75" /><rect x="180.000" y="249.000" width="28.800" height="39.600" style="fill:#37352b;stroke:#87949b;stroke-width:0.75" /><text x="165.600" y="270.000" text-anchor="middle" style="fill:#b6c0c5;font-family:monospace;font-size:5.7px">SANITARY</text><text x="194.400" y="270.000" text-anchor="middle" style="fill:#b6c0c5;font-family:monospace;font-size:5.7px">STORE / PREP</text><rect x="151.200" y="288.600" width="57.600" height="49.200" style="fill:#2b2422;fill-opacity:0.45;stroke:#b88675;stroke-width:0.85;stroke-dasharray:2 1.5" /><text x="180.000" y="312.000" text-anchor="middle" style="fill:#b6c0c5;font-family:monospace;font-size:5.7px">ENGINEERING ATRIUM</text><text x="180.000" y="322.200" text-anchor="middle" style="fill:#93a0a7;font-family:monospace;font-size:4.7px">UPPER GALLERY / VOID</text><rect x="123.000" y="337.800" width="114.000" height="36.000" style="fill:#28363b;stroke:#76a8c2;stroke-width:0.85" /><text x="180.000" y="355.800" text-anchor="middle" style="fill:#f0f3f4;font-family:monospace;font-size:7.5px">DECK +1 CATWALK</text><text x="180.000" y="364.800" text-anchor="middle" style="fill:#93a0a7;font-family:monospace;font-size:4.7px">INSIDE CARGO HOLD</text><rect x="141.030" y="373.800" width="14.628" height="73.152" style="fill:none;stroke:#a28ead;stroke-width:0.55;stroke-dasharray:2 1.5;stroke-opacity:0.6" /><rect x="156.858" y="373.800" width="14.628" height="73.152" style="fill:none;stroke:#a28ead;stroke-width:0.55;stroke-dasharray:2 1.5;stroke-opacity:0.6" /><rect x="172.686" y="373.800" width="14.628" height="73.152" style="fill:none;stroke:#a28ead;stroke-width:0.55;stroke-dasharray:2 1.5;stroke-opacity:0.6" /><rect x="188.514" y="373.800" width="14.628" height="73.152" style="fill:none;stroke:#a28ead;stroke-width:0.55;stroke-dasharray:2 1.5;stroke-opacity:0.6" /><rect x="204.342" y="373.800" width="14.628" height="73.152" style="fill:none;stroke:#a28ead;stroke-width:0.55;stroke-dasharray:2 1.5;stroke-opacity:0.6" /><rect x="141.030" y="452.952" width="77.940" height="24.000" style="fill:none;stroke:#76a8c2;stroke-width:0.55;stroke-dasharray:2 1.5;stroke-opacity:0.6" /><text x="180.000" y="411.000" text-anchor="middle" style="fill:#93a0a7;font-family:monospace;font-size:4.7px">C40 STACK PROJECTION</text><line x1="138.000" y1="476.952" x2="222.000" y2="476.952" style="stroke:#e8ecef;stroke-width:1.7" /></g><g id="deck-d0"><text x="540.000" y="64.000" text-anchor="middle" style="fill:#f0f3f4;font-family:monospace;font-size:12px;font-weight:bold">DECK 0</text><text x="540.000" y="75.000" text-anchor="middle" style="fill:#93a0a7;font-family:monospace;font-size:7px">MAIN OPS / BRIDGE / AIRLOCKS</text><polygon points="529.500,78.000 510.000,97.500 489.000,138.000 480.000,180.000 480.000,452.952 495.000,476.952 585.000,476.952 600.000,452.952 600.000,180.000 591.000,138.000 570.000,97.500 550.500,78.000" style="fill:none;stroke:#e8ecef;stroke-width:1.7" /><polygon points="532.800,82.800 513.600,97.500 492.600,138.000 483.000,180.000 483.000,451.200 498.000,474.000 582.000,474.000 597.000,451.200 597.000,180.000 587.400,138.000 566.400,97.500 547.200,82.800" style="fill:none;stroke:#87949b;stroke-width:0.85" /><line x1="540.000" y1="80.400" x2="540.000" y2="474.000" style="stroke:#68777e;stroke-width:0.65;stroke-dasharray:6 3 1.5 3" /><polygon points="534.000,85.200 517.200,102.000 496.800,138.000 490.800,156.000 589.200,156.000 583.200,138.000 562.800,102.000 546.000,85.200" style="fill:#243640;stroke:#87949b;stroke-width:0.75" /><text x="540.000" y="130.200" text-anchor="middle" style="fill:#f0f3f4;font-family:monospace;font-size:7.5px">BRIDGE</text><rect x="534.000" y="156.000" width="12.000" height="48.000" style="fill:#203b33;stroke:#6c9c83;stroke-width:0.75" /><rect x="513.600" y="156.000" width="20.400" height="36.000" style="fill:#1c252a;stroke:#87949b;stroke-width:0.75" /><rect x="546.000" y="156.000" width="20.400" height="36.000" style="fill:#1c252a;stroke:#87949b;stroke-width:0.75" /><text x="523.800" y="175.800" text-anchor="middle" style="fill:#b6c0c5;font-family:monospace;font-size:5.7px">STAIR</text><text x="556.200" y="175.800" text-anchor="middle" style="fill:#b6c0c5;font-family:monospace;font-size:5.7px">ELEV</text><text x="540.000" y="175.800" text-anchor="middle" style="fill:#93a0a7;font-family:monospace;font-size:4.7px" transform="rotate(-90 540.000 175.800)">2.0 m</text><rect x="498.000" y="192.000" width="84.000" height="12.000" style="fill:#203b33;stroke:#6c9c83;stroke-width:0.75" /><text x="540.000" y="199.500" text-anchor="middle" style="fill:#b6c0c5;font-family:monospace;font-size:5.7px">CROSS PASSAGE</text><rect x="483.000" y="189.000" width="15.000" height="18.000" style="fill:#28363b;stroke:#87949b;stroke-width:0.75" /><rect x="582.000" y="189.000" width="15.000" height="18.000" style="fill:#28363b;stroke:#87949b;stroke-width:0.75" /><text x="490.500" y="198.900" text-anchor="middle" style="fill:#93a0a7;font-family:monospace;font-size:4.7px">AL-P</text><text x="589.500" y="198.900" text-anchor="middle" style="fill:#93a0a7;font-family:monospace;font-size:4.7px">AL-S</text><rect x="498.000" y="204.000" width="12.000" height="133.800" style="fill:#203b33;stroke:#6c9c83;stroke-width:0.75" /><rect x="570.000" y="204.000" width="12.000" height="133.800" style="fill:#203b33;stroke:#6c9c83;stroke-width:0.75" /><text x="504.000" y="270.600" text-anchor="middle" style="fill:#93a0a7;font-family:monospace;font-size:4.7px" transform="rotate(-90 504.000 270.600)">PORT PWAY</text><text x="576.000" y="270.600" text-anchor="middle" style="fill:#93a0a7;font-family:monospace;font-size:4.7px" transform="rotate(90 576.000 270.600)">STBD PWAY</text><line x1="483.000" y1="337.800" x2="498.000" y2="337.800" style="stroke:#e8ecef;stroke-width:1.7" /><line x1="510.000" y1="337.800" x2="570.000" y2="337.800" style="stroke:#e8ecef;stroke-width:1.7" /><line x1="582.000" y1="337.800" x2="597.000" y2="337.800" style="stroke:#e8ecef;stroke-width:1.7" /><polygon points="483.000,337.800 483.000,452.952 498.000,476.952 582.000,476.952 597.000,452.952 597.000,337.800" style="fill:#18231f;stroke:#87949b;stroke-width:0.75" /><rect x="510.000" y="204.000" width="12.000" height="43.200" style="fill:#28353c;stroke:#87949b;stroke-width:0.75" /><text x="516.000" y="226.800" text-anchor="middle" style="fill:#93a0a7;font-family:monospace;font-size:4.7px">C01</text><rect x="522.000" y="204.000" width="12.000" height="43.200" style="fill:#28353c;stroke:#87949b;stroke-width:0.75" /><text x="528.000" y="226.800" text-anchor="middle" style="fill:#93a0a7;font-family:monospace;font-size:4.7px">C02</text><rect x="534.000" y="204.000" width="12.000" height="43.200" style="fill:#28353c;stroke:#87949b;stroke-width:0.75" /><text x="540.000" y="226.800" text-anchor="middle" style="fill:#93a0a7;font-family:monospace;font-size:4.7px">C03</text><rect x="546.000" y="204.000" width="12.000" height="43.200" style="fill:#28353c;stroke:#87949b;stroke-width:0.75" /><text x="552.000" y="226.800" text-anchor="middle" style="fill:#93a0a7;font-family:monospace;font-size:4.7px">C04</text><rect x="558.000" y="204.000" width="12.000" height="43.200" style="fill:#28353c;stroke:#87949b;stroke-width:0.75" /><text x="564.000" y="226.800" text-anchor="middle" style="fill:#93a0a7;font-family:monospace;font-size:4.7px">C05</text><rect x="510.000" y="247.200" width="60.000" height="1.800" style="fill:#8a633f;fill-opacity:0.55" /><text x="540.000" y="246.300" text-anchor="middle" style="fill:#93a0a7;font-family:monospace;font-size:4.7px">C0n BANK 5 x 2.00 m</text><rect x="511.200" y="249.000" width="28.800" height="39.600" style="fill:#37352b;stroke:#87949b;stroke-width:0.75" /><rect x="540.000" y="249.000" width="28.800" height="39.600" style="fill:#37352b;stroke:#87949b;stroke-width:0.75" /><text x="525.600" y="270.000" text-anchor="middle" style="fill:#b6c0c5;font-family:monospace;font-size:5.7px">INFIRMARY</text><text x="554.400" y="270.000" text-anchor="middle" style="fill:#b6c0c5;font-family:monospace;font-size:5.7px">GALLEY</text><rect x="511.200" y="288.600" width="57.600" height="49.200" style="fill:#49352f;stroke:#b88675;stroke-width:0.85" /><text x="540.000" y="312.000" text-anchor="middle" style="fill:#f0f3f4;font-family:monospace;font-size:7.5px">ENGINEERING</text><text x="540.000" y="322.200" text-anchor="middle" style="fill:#93a0a7;font-family:monospace;font-size:4.7px">ATRIUM / MAIN ACCESS</text><rect x="483.000" y="337.800" width="114.000" height="36.000" style="fill:#28363b;stroke:#76a8c2;stroke-width:0.85" /><text x="540.000" y="355.800" text-anchor="middle" style="fill:#f0f3f4;font-family:monospace;font-size:7.5px">DECK 0 CATWALK</text><text x="540.000" y="364.800" text-anchor="middle" style="fill:#93a0a7;font-family:monospace;font-size:4.7px">INSIDE CARGO HOLD</text><rect x="501.030" y="373.800" width="14.628" height="73.152" style="fill:none;stroke:#a28ead;stroke-width:0.55;stroke-dasharray:2 1.5;stroke-opacity:0.6" /><rect x="516.858" y="373.800" width="14.628" height="73.152" style="fill:none;stroke:#a28ead;stroke-width:0.55;stroke-dasharray:2 1.5;stroke-opacity:0.6" /><rect x="532.686" y="373.800" width="14.628" height="73.152" style="fill:none;stroke:#a28ead;stroke-width:0.55;stroke-dasharray:2 1.5;stroke-opacity:0.6" /><rect x="548.514" y="373.800" width="14.628" height="73.152" style="fill:none;stroke:#a28ead;stroke-width:0.55;stroke-dasharray:2 1.5;stroke-opacity:0.6" /><rect x="564.342" y="373.800" width="14.628" height="73.152" style="fill:none;stroke:#a28ead;stroke-width:0.55;stroke-dasharray:2 1.5;stroke-opacity:0.6" /><rect x="501.030" y="452.952" width="77.940" height="24.000" style="fill:none;stroke:#76a8c2;stroke-width:0.55;stroke-dasharray:2 1.5;stroke-opacity:0.6" /><text x="540.000" y="411.000" text-anchor="middle" style="fill:#93a0a7;font-family:monospace;font-size:4.7px">C40 STACK PROJECTION</text><line x1="498.000" y1="476.952" x2="582.000" y2="476.952" style="stroke:#e8ecef;stroke-width:1.7" /></g><g id="deck-m1"><text x="900.000" y="64.000" text-anchor="middle" style="fill:#f0f3f4;font-family:monospace;font-size:12px;font-weight:bold">DECK -1</text><text x="900.000" y="75.000" text-anchor="middle" style="fill:#93a0a7;font-family:monospace;font-size:7px">UTILITIES / MACHINERY / HOLD FLOOR</text><polygon points="889.500,78.000 870.000,97.500 849.000,138.000 840.000,180.000 840.000,452.952 855.000,476.952 945.000,476.952 960.000,452.952 960.000,180.000 951.000,138.000 930.000,97.500 910.500,78.000" style="fill:none;stroke:#e8ecef;stroke-width:1.7" /><polygon points="894.000,90.000 880.800,108.000 859.200,138.000 844.800,180.000 843.000,451.200 858.000,474.000 942.000,474.000 957.000,451.200 955.200,180.000 940.800,138.000 919.200,108.000 906.000,90.000" style="fill:none;stroke:#87949b;stroke-width:0.85" /><line x1="900.000" y1="80.400" x2="900.000" y2="474.000" style="stroke:#68777e;stroke-width:0.65;stroke-dasharray:6 3 1.5 3" /><polygon points="894.000,92.400 882.000,108.000 862.800,138.000 854.400,156.000 945.600,156.000 937.200,138.000 918.000,108.000 906.000,92.400" style="fill:#1c252a;stroke:#87949b;stroke-width:0.75" /><text x="900.000" y="130.200" text-anchor="middle" style="fill:#f0f3f4;font-family:monospace;font-size:7.5px">FUEL / FORWARD UTILITIES</text><rect x="894.000" y="156.000" width="12.000" height="48.000" style="fill:#203b33;stroke:#6c9c83;stroke-width:0.75" /><rect x="873.600" y="156.000" width="20.400" height="36.000" style="fill:#1c252a;stroke:#87949b;stroke-width:0.75" /><rect x="906.000" y="156.000" width="20.400" height="36.000" style="fill:#1c252a;stroke:#87949b;stroke-width:0.75" /><text x="883.800" y="175.800" text-anchor="middle" style="fill:#b6c0c5;font-family:monospace;font-size:5.7px">STAIR</text><text x="916.200" y="175.800" text-anchor="middle" style="fill:#b6c0c5;font-family:monospace;font-size:5.7px">ELEV</text><text x="900.000" y="175.800" text-anchor="middle" style="fill:#93a0a7;font-family:monospace;font-size:4.7px" transform="rotate(-90 900.000 175.800)">2.0 m</text><rect x="858.000" y="192.000" width="84.000" height="12.000" style="fill:#203b33;stroke:#6c9c83;stroke-width:0.75" /><text x="900.000" y="199.500" text-anchor="middle" style="fill:#b6c0c5;font-family:monospace;font-size:5.7px">CROSS PASSAGE</text><rect x="858.000" y="204.000" width="12.000" height="133.800" style="fill:#203b33;stroke:#6c9c83;stroke-width:0.75" /><rect x="930.000" y="204.000" width="12.000" height="133.800" style="fill:#203b33;stroke:#6c9c83;stroke-width:0.75" /><text x="864.000" y="270.600" text-anchor="middle" style="fill:#93a0a7;font-family:monospace;font-size:4.7px" transform="rotate(-90 864.000 270.600)">PORT PWAY</text><text x="936.000" y="270.600" text-anchor="middle" style="fill:#93a0a7;font-family:monospace;font-size:4.7px" transform="rotate(90 936.000 270.600)">STBD PWAY</text><line x1="843.000" y1="337.800" x2="858.000" y2="337.800" style="stroke:#e8ecef;stroke-width:1.7" /><line x1="870.000" y1="337.800" x2="930.000" y2="337.800" style="stroke:#e8ecef;stroke-width:1.7" /><line x1="942.000" y1="337.800" x2="957.000" y2="337.800" style="stroke:#e8ecef;stroke-width:1.7" /><polygon points="843.000,337.800 843.000,452.952 858.000,476.952 942.000,476.952 957.000,452.952 957.000,337.800" style="fill:#1e2d26;stroke:#87949b;stroke-width:0.75" /><rect x="870.000" y="204.000" width="60.000" height="43.200" style="fill:#37352b;stroke:#87949b;stroke-width:0.75" /><text x="900.000" y="226.800" text-anchor="middle" style="fill:#b6c0c5;font-family:monospace;font-size:5.7px">WORKSHOP / STORES</text><rect x="870.000" y="247.200" width="60.000" height="1.800" style="fill:#8a633f;fill-opacity:0.55" /><rect x="871.200" y="249.000" width="57.600" height="39.600" style="fill:#37352b;stroke:#87949b;stroke-width:0.75" /><text x="900.000" y="268.800" text-anchor="middle" style="fill:#b6c0c5;font-family:monospace;font-size:5.7px">UTILITY / WATER / BALLAST</text><rect x="871.200" y="288.600" width="57.600" height="49.200" style="fill:#49352f;stroke:#b88675;stroke-width:0.85" /><text x="900.000" y="311.400" text-anchor="middle" style="fill:#b6c0c5;font-family:monospace;font-size:5.7px">ENGINEERING ATRIUM</text><text x="900.000" y="322.200" text-anchor="middle" style="fill:#93a0a7;font-family:monospace;font-size:4.7px">MACHINERY DECK / BASE</text><rect x="843.000" y="337.800" width="114.000" height="36.000" style="fill:#28363b;stroke:#76a8c2;stroke-width:0.75" /><text x="900.000" y="354.600" text-anchor="middle" style="fill:#f0f3f4;font-family:monospace;font-size:7.5px">HOLD DECK</text><text x="900.000" y="364.200" text-anchor="middle" style="fill:#93a0a7;font-family:monospace;font-size:4.7px">6.0 m WORKING APRON</text><rect x="861.030" y="373.800" width="14.628" height="73.152" style="fill:#40374b;stroke:#a28ead;stroke-width:0.65" /><rect x="876.858" y="373.800" width="14.628" height="73.152" style="fill:#40374b;stroke:#a28ead;stroke-width:0.65" /><rect x="892.686" y="373.800" width="14.628" height="73.152" style="fill:#40374b;stroke:#a28ead;stroke-width:0.65" /><rect x="908.514" y="373.800" width="14.628" height="73.152" style="fill:#40374b;stroke:#a28ead;stroke-width:0.65" /><rect x="924.342" y="373.800" width="14.628" height="73.152" style="fill:#40374b;stroke:#a28ead;stroke-width:0.65" /><text x="900.000" y="411.000" text-anchor="middle" style="fill:#b6c0c5;font-family:monospace;font-size:5.7px">5 x C40 / 3 HIGH</text><text x="852.000" y="411.000" text-anchor="middle" style="fill:#93a0a7;font-family:monospace;font-size:4.7px" transform="rotate(-90 852.000 411.000)">3.005 m</text><text x="948.000" y="411.000" text-anchor="middle" style="fill:#93a0a7;font-family:monospace;font-size:4.7px" transform="rotate(90 948.000 411.000)">3.005 m</text><rect x="861.030" y="452.952" width="77.940" height="24.000" style="fill:#314147;stroke:#76a8c2;stroke-width:0.75" /><text x="900.000" y="466.200" text-anchor="middle" style="fill:#93a0a7;font-family:monospace;font-size:4.7px">4.0 m RAMP</text><line x1="858.000" y1="476.952" x2="942.000" y2="476.952" style="stroke:#e8ecef;stroke-width:1.7" /></g><text x="30.000" y="558.000" text-anchor="start" style="fill:#f0f3f4;font-family:monospace;font-size:8px;font-weight:bold">CAD BASIS</text><text x="30.000" y="576.000" text-anchor="start" style="fill:#93a0a7;font-family:monospace;font-size:7px">Derived station chain: 0 / 13 / 19 / 21 / 28.2 / 28.5 / 35.1 / 43.3 / 49.3 / 61.492 / 62.492 / 66.492 m</text><text x="30.000" y="592.000" text-anchor="start" style="fill:#93a0a7;font-family:monospace;font-size:7px">Hull driver: 19.0 m clear hold + structure = 20.0 m max beam. Aft ramp tapers to 14.0 m clear hatch in 15.0 m outer frame.</text><text x="30.000" y="608.000" text-anchor="start" style="fill:#93a0a7;font-family:monospace;font-size:7px">Forebody character: Accountant hull station taper. Deck +1 and Deck -1 usable slices pinch earlier than Deck 0 because the bow also tapers vertically.</text><text x="30.000" y="624.000" text-anchor="start" style="fill:#93a0a7;font-family:monospace;font-size:7px">Hold lock: 6.0 m catwalk/apron + 12.192 m C40 + 1.0 m gap + 4.0 m ramp = 23.192 m.</text><g transform="translate(810 557)"><rect x="0" y="0" width="238" height="72" fill="#171d21" stroke="#6f7e85" stroke-width="1" /><line x1="0" y1="21" x2="238" y2="21" stroke="#4f5c62" stroke-width="0.8" /><line x1="0" y1="46" x2="238" y2="46" stroke="#4f5c62" stroke-width="0.8" /><text x="8.000" y="14.000" text-anchor="start" style="fill:#93a0a7;font-family:monospace;font-size:6.5px">HALCYRENE YARDS / ST CLASS</text><text x="8.000" y="38.000" text-anchor="start" style="fill:#f0f3f4;font-family:monospace;font-size:8px;font-weight:bold">CALYPSO / THREE DECK GA</text><text x="8.000" y="62.000" text-anchor="start" style="fill:#93a0a7;font-family:monospace;font-size:6.5px">STATUS: CAD BASIS DRAFT</text><text x="181.000" y="62.000" text-anchor="start" style="fill:#93a0a7;font-family:monospace;font-size:6.5px">REV A</text></g></svg>